# xmcd
#
# Track frame offsets:
# 150
# 16984
# 32140
# 50262
# 66014
# 80866
# 98782
# 116795
# 135902
# 153142
# 174590
# 189588
# 205006
# 220740
# 237337
# 254737
# 275919
#
# Disc length: 3935 seconds
#
#
# Revision: 0
# Processed by: cddbd v1.5.2PL0 Copyright (c) Steve Scherf et al.
# Submitted via: FreeRIP 2.951 
#
DISCID=f20f5d11
DTITLE=Simon Webbe - Edição especial "Radio Comercial"
DYEAR=1900
DGENRE=Hip-Hop
TTITLE0=Coming around again
TTITLE1=Seventeen
TTITLE2=Sunshine (love like that)
TTITLE3=Go to sleep
TTITLE4=Ain't true to yourself
TTITLE5=Don't wanna be that man
TTITLE6=Angel (my life began with you)
TTITLE7=Fool for you
TTITLE8=My soul pleads for you
TTITLE9=That´s the way it goes
TTITLE10=Take your time
TTITLE11=Grace
TTITLE12=No worries
TTITLE13=Ride the storm (from the movie "Fantastic four")
TTITLE14=Grace (live from Radio Comercial)
TTITLE15=My soul pleads for you (live from Radio Comercial)
TTITLE16=Coming around again (live from Radio Comercial)
EXTD=
EXTT0=
EXTT1=
EXTT2=
EXTT3=
EXTT4=
EXTT5=
EXTT6=
EXTT7=
EXTT8=
EXTT9=
EXTT10=
EXTT11=
EXTT12=
EXTT13=
EXTT14=
EXTT15=
EXTT16=
PLAYORDER=
